<svg xmlns="http://www.w3.org/2000/svg" viewBox="0 0 470.739 470.739"><path d="M97.033 175.595c-.009-.525-.02-1.049-.02-1.575 0-50.155 40.659-90.814 90.814-90.814 43.222 0 79.388 30.196 88.562 70.643a58.995 58.995 0 0 1 28.91-7.531c32.766 0 59.328 26.562 59.328 59.328 0 1.339-.06 2.664-.148 3.981 24.325 9.03 41.661 32.444 41.661 59.911 0 35.286-28.605 63.892-63.892 63.892H114.384c-44.108 0-79.865-35.757-79.865-79.865 0-38.149 26.75-70.046 62.514-77.97z" fill="#1ea6c6"/><path d="M436.221 124.39c-8.8 29.8-31.56 53.62-60.7 63.89-7.8-31.52-36.32-54.96-70.22-54.96a72.5 72.5 0 0 0-20.72 3.03c-6.54-16.73-17.43-31.7-31.53-43.1-2.03-1.64-4.12-3.2-6.27-4.68C250.991 38.96 292.591 0 343.3 0c15.55 0 30.23 3.66 43.25 10.18-8.66.15-17.41 1.98-25.84 5.66-34.08 14.93-49.6 54.68-34.67 88.76s54.67 49.62 88.76 34.68c8.301-3.64 15.491-8.74 21.421-14.89z" fill="#f7cf52"/><path d="M83.977 350.627h15v39.746h-15zm0 55.364h15v64.748h-15zm32.211-55.364h15v120.111h-15zm32.22 0h15v63.807h-15zm0 78.604h15v41.507h-15zm32.21-78.604h15v120.111h-15zm64.422 85.301h15v34.81h-15zm0-85.301h15v69.883h-15zm-32.211 0h15v25.483h-15zm0 39.753h15v80.358h-15zm64.423-39.753h15v56.623h-15zm0 71.501h15v48.61h-15zm32.219-71.501h15v86.465h-15zm0 100.745h15v19.366h-15zm32.211-100.745h15v120.111h-15z" fill="#96e0de"/></svg>