<svg xmlns="http://www.w3.org/2000/svg" viewBox="0 0 406.02 406.02"><path fill="#f7cf52" d="M306.79 196.3l-31.53 53.93-17.36 29.7h37.31l-105.5 126.09 39.88-106.79h-38.6l16.48-48.82 18.26-54.11z"/><path d="M347.16 126.42c24.32 9.03 41.66 32.45 41.66 59.92 0 35.28-28.61 63.89-63.89 63.89h-49.67l31.53-53.93h-81.06l-18.26 54.11-.52-.18H97.06c-44.11 0-79.86-35.76-79.86-79.87 0-38.15 26.75-70.04 62.51-77.97-.01-.52-.02-1.04-.02-1.57C79.69 40.66 120.35 0 170.51 0c43.22 0 79.38 30.2 88.56 70.65a58.972 58.972 0 0 1 28.91-7.53c32.76 0 59.33 26.56 59.33 59.32 0 1.34-.06 2.67-.15 3.98z" fill="#1ea6c6"/></svg>