<svg xmlns="http://www.w3.org/2000/svg" viewBox="0 0 381.135 381.135"><path d="M330.82 308.257c-25.808 26.451-61.844 42.87-101.722 42.87-78.478 0-142.096-63.619-142.096-142.096S150.62 66.934 229.098 66.934c39.878 0 75.914 16.419 101.722 42.87h38.823c-31.201-44.062-82.567-72.879-140.545-72.879-94.905 0-172.105 77.209-172.105 172.105s77.2 172.105 172.105 172.105c57.977 0 109.344-28.817 140.545-72.879l-38.823.001z" fill="#999"/><path d="M48.992 75c-20.678 0-37.5-16.823-37.5-37.5S28.314 0 48.992 0s37.5 16.823 37.5 37.5S69.669 75 48.992 75zm0-60c-12.407 0-22.5 10.094-22.5 22.5S36.585 60 48.992 60s22.5-10.094 22.5-22.5S61.398 15 48.992 15z" fill="gray"/></svg>