<svg xmlns="http://www.w3.org/2000/svg" viewBox="0 0 447.974 447.974"><path d="M62.513 191.264c-.009-.525-.02-1.049-.02-1.575 0-50.155 40.659-90.814 90.814-90.814 43.222 0 79.388 30.196 88.562 70.643a58.995 58.995 0 0 1 28.91-7.531c32.766 0 59.328 26.562 59.328 59.328 0 1.339-.06 2.664-.148 3.981 24.325 9.03 41.661 32.444 41.661 59.911 0 35.286-28.605 63.892-63.892 63.892H79.865C35.757 349.099 0 313.341 0 269.234c0-38.149 26.749-70.046 62.513-77.97z" fill="#1ea6c6"/><path d="M447.974 255.535c0 40.56-32.88 73.44-73.44 73.44h-3.62a76.445 76.445 0 0 0 13.71-43.77c0-28.87-16.41-55.28-41.65-68.34-2.31-37.82-33.81-67.88-72.19-67.88-7.04 0-14.03 1.04-20.73 3.04-2.67-6.82-6.05-13.35-10.08-19.46 15.22-20.44 39.57-33.69 67.02-33.69 46.12 0 83.51 37.39 83.51 83.51 0 .49-.01.97-.02 1.45 32.89 7.289 57.49 36.619 57.49 71.7z" fill="#037893"/></svg>