<svg xmlns="http://www.w3.org/2000/svg" viewBox="0 0 401.701 401.701"><path d="M62.513 209.731c-.009-.525-.02-1.049-.02-1.575 0-50.155 40.659-90.814 90.814-90.814 43.222 0 79.388 30.196 88.562 70.643a58.995 58.995 0 0 1 28.91-7.531c32.766 0 59.328 26.562 59.328 59.328 0 1.339-.06 2.664-.148 3.98 24.325 9.03 41.661 32.444 41.661 59.911 0 35.286-28.605 63.892-63.892 63.892H79.865C35.757 367.565 0 331.809 0 287.7c0-38.148 26.749-70.045 62.513-77.969z" fill="#1ea6c6"/><path d="M401.701 158.526c-8.8 29.8-31.56 53.62-60.7 63.89-7.8-31.52-36.32-54.96-70.22-54.96a72.5 72.5 0 0 0-20.72 3.03c-6.54-16.73-17.43-31.7-31.53-43.1-2.03-1.64-4.12-3.2-6.27-4.68 4.21-49.61 45.81-88.57 96.52-88.57 15.55 0 30.23 3.66 43.25 10.18-8.66.15-17.41 1.98-25.84 5.66-34.08 14.93-49.6 54.68-34.67 88.76 14.93 34.08 54.67 49.62 88.76 34.68 8.3-3.64 15.49-8.74 21.42-14.89z" fill="#f7cf52"/></svg>