<svg xmlns="http://www.w3.org/2000/svg" viewBox="0 0 398.745 398.745"><path d="M62.513 220.445c-.009-.525-.02-1.049-.02-1.575 0-50.155 40.659-90.814 90.814-90.814 43.222 0 79.388 30.196 88.562 70.643a58.995 58.995 0 0 1 28.91-7.531c32.766 0 59.328 26.562 59.328 59.328 0 1.339-.06 2.664-.148 3.981 24.325 9.03 41.661 32.444 41.661 59.911 0 35.286-28.605 63.892-63.892 63.892H79.865C35.757 378.279 0 342.522 0 298.414c0-38.148 26.749-70.045 62.513-77.969z" fill="#1ea6c6"/><path d="M232.141 20.465h15v58.599h-15zm83.871 93.338l-10.606-10.607 41.435-41.434 10.606 10.606zm24.133 58.265h58.6v15h-58.6zM163.27 113.804l-41.434-41.435 10.606-10.606 41.435 41.434zm153.865 65.647c0 4.95-.46 9.78-1.35 14.47-12.35-9.85-28-15.75-45-15.75-7.04 0-14.03 1.03-20.73 3.03-6.54-16.73-17.42-31.7-31.53-43.1a103.76 103.76 0 0 0-30.02-16.88c13.64-11.99 31.53-19.26 51.13-19.26 42.8 0 77.5 34.69 77.5 77.49z" fill="#f7cf52"/></svg>