<svg xmlns="http://www.w3.org/2000/svg" viewBox="0 0 373.759 373.759"><path d="M63.583 92.389c-.009-.525-.02-1.049-.02-1.575C63.563 40.659 104.222 0 154.377 0c43.222 0 79.388 30.196 88.562 70.643a58.995 58.995 0 0 1 28.91-7.531c32.766 0 59.328 26.562 59.328 59.328 0 1.339-.06 2.664-.148 3.981 24.325 9.03 41.661 32.444 41.661 59.911 0 35.286-28.605 63.892-63.892 63.892H80.935c-44.108 0-79.865-35.757-79.865-79.865 0-38.149 26.749-70.045 62.513-77.97z" fill="#1ea6c6"/><path d="M90.233 334.539c-1.97 0-3.9-.8-5.3-2.2-.34-.34-.66-.72-.93-1.14a7.597 7.597 0 0 1-1.12-2.69c-.1-.49-.15-.98-.15-1.47s.05-.98.15-1.46c.1-.48.24-.96.43-1.41a7.597 7.597 0 0 1 1.62-2.43c.35-.35.73-.66 1.14-.93.41-.27.84-.51 1.3-.69.45-.19.92-.34 1.4-.43.97-.2 1.96-.2 2.93 0 .48.09.95.24 1.4.43.46.18.89.42 1.3.69a7.24 7.24 0 0 1 2.07 2.07c.27.4.5.84.69 1.29s.33.93.43 1.41.14.97.14 1.46-.04.98-.14 1.47a7.597 7.597 0 0 1-1.12 2.69c-.27.42-.59.8-.93 1.14-.35.35-.73.66-1.14.94a7.528 7.528 0 0 1-2.7 1.11c-.479.1-.979.15-1.47.15zm64.441 0c-.49 0-.99-.05-1.47-.15a7.528 7.528 0 0 1-2.7-1.11c-.41-.28-.79-.59-1.14-.94-.34-.34-.66-.72-.93-1.14a7.597 7.597 0 0 1-1.12-2.69c-.1-.49-.14-.98-.14-1.47s.04-.98.14-1.46.24-.96.43-1.41a7.597 7.597 0 0 1 1.62-2.43c.35-.35.73-.66 1.14-.93s.84-.51 1.3-.69c.45-.19.92-.34 1.4-.43.97-.2 1.96-.2 2.93 0 .48.09.95.24 1.4.43.46.18.89.42 1.3.69a7.24 7.24 0 0 1 2.07 2.07c.27.4.5.84.69 1.29a7.655 7.655 0 0 1 .58 2.87 7.556 7.556 0 0 1-1.27 4.16c-.27.42-.59.8-.93 1.14-.35.35-.73.66-1.14.94a7.528 7.528 0 0 1-2.7 1.11c-.48.1-.98.15-1.46.15zm64.42 0c-.49 0-.98-.05-1.47-.15-.48-.09-.95-.24-1.4-.42-.45-.19-.89-.42-1.3-.69a7.45 7.45 0 0 1-2.07-2.08 7.597 7.597 0 0 1-1.12-2.69c-.09-.49-.14-.98-.14-1.47s.05-.98.14-1.46c.1-.48.24-.96.43-1.41a7.597 7.597 0 0 1 1.62-2.43c.35-.35.73-.66 1.14-.93s.85-.51 1.3-.69c.45-.19.92-.34 1.4-.43.97-.2 1.97-.2 2.93 0 .48.09.95.24 1.41.43.45.18.88.42 1.29.69.41.27.8.58 1.14.93 1.4 1.39 2.2 3.33 2.2 5.3 0 1.98-.8 3.91-2.2 5.3a7.403 7.403 0 0 1-2.43 1.63c-.46.18-.93.33-1.41.42-.48.1-.971.15-1.46.15zm64.429 0c-1.98 0-3.91-.8-5.3-2.2a7.403 7.403 0 0 1-2.05-3.83c-.1-.49-.15-.98-.15-1.47s.05-.98.15-1.46c.09-.48.24-.96.42-1.41a7.403 7.403 0 0 1 1.63-2.43c1.73-1.74 4.33-2.54 6.76-2.05.48.09.95.24 1.41.43.45.18.89.41 1.29.69.41.27.8.58 1.14.93.35.34.66.73.93 1.14.27.4.51.84.69 1.29.19.46.34.93.43 1.41.1.48.15.97.15 1.46s-.05.98-.15 1.47c-.09.47-.24.95-.43 1.4-.18.45-.42.89-.69 1.29-.27.41-.58.8-.93 1.14a7.403 7.403 0 0 1-2.43 1.63c-.46.18-.93.33-1.41.42-.48.1-.97.15-1.46.15zm-225.5-39.22c-.49 0-.98-.05-1.46-.15-.48-.09-.95-.24-1.41-.42-.45-.19-.88-.42-1.29-.69-.41-.28-.79-.59-1.14-.94-.35-.34-.66-.73-.93-1.14a7.597 7.597 0 0 1-1.12-2.69 7.334 7.334 0 0 1 0-2.94 7.597 7.597 0 0 1 1.12-2.69c.27-.41.58-.8.93-1.14.35-.35.73-.66 1.14-.94.41-.27.84-.5 1.29-.68.46-.19.93-.34 1.41-.43.97-.2 1.96-.2 2.93 0 .48.09.95.24 1.4.43.46.18.89.41 1.3.68.41.28.79.59 1.14.94a7.597 7.597 0 0 1 2.05 3.83c.09.49.14.98.14 1.47s-.05.98-.14 1.47a7.597 7.597 0 0 1-2.05 3.83c-.35.35-.73.66-1.14.94a7.528 7.528 0 0 1-2.7 1.11c-.479.1-.979.15-1.47.15zm64.431 0c-.48 0-.98-.05-1.46-.15a7.528 7.528 0 0 1-2.7-1.11 7.552 7.552 0 0 1-3.34-6.24c0-.49.05-.98.15-1.47a7.597 7.597 0 0 1 2.05-3.83c.35-.35.73-.66 1.14-.94a7.528 7.528 0 0 1 2.7-1.11c2.44-.49 5.03.31 6.77 2.05a7.597 7.597 0 0 1 2.05 3.83c.1.49.15.98.15 1.47 0 1.97-.81 3.91-2.2 5.3a7.55 7.55 0 0 1-5.31 2.2zm64.429 0c-.49 0-.99-.05-1.47-.15-.48-.09-.95-.24-1.4-.42-.45-.19-.89-.42-1.3-.69-.41-.28-.79-.59-1.14-.94a7.597 7.597 0 0 1-2.05-3.83 8.13 8.13 0 0 1-.14-1.47c0-1.97.8-3.91 2.19-5.3.35-.35.73-.66 1.14-.93s.85-.51 1.3-.69c.45-.19.92-.34 1.4-.43.97-.2 1.97-.2 2.93 0 .48.09.95.24 1.41.43.45.18.88.42 1.29.69.41.27.79.58 1.14.93.35.34.66.73.93 1.14.27.4.5.84.69 1.29s.33.93.43 1.4a7.334 7.334 0 0 1 0 2.94 7.597 7.597 0 0 1-1.12 2.69c-.27.41-.58.8-.93 1.14-.35.35-.73.66-1.14.94-.41.27-.84.5-1.29.69-.46.18-.93.33-1.41.42-.479.1-.969.15-1.46.15zm64.42 0c-1.97 0-3.91-.8-5.3-2.2-.35-.34-.66-.72-.94-1.14-.27-.4-.5-.84-.69-1.29-.18-.45-.33-.92-.42-1.4-.1-.49-.15-.98-.15-1.47s.05-.98.15-1.46c.09-.48.24-.95.42-1.41a7.403 7.403 0 0 1 1.63-2.43 7.403 7.403 0 0 1 3.83-2.05c2.44-.5 5.03.31 6.77 2.05.35.34.66.73.93 1.14.27.4.51.84.69 1.29.19.46.34.93.43 1.41.1.48.15.97.15 1.46s-.05.98-.15 1.47c-.09.48-.24.95-.43 1.4-.18.45-.42.89-.69 1.29-.27.42-.58.8-.93 1.14a7.528 7.528 0 0 1-5.3 2.2zm64.429 0a7.762 7.762 0 0 1-2.87-.57 7.403 7.403 0 0 1-2.43-1.63c-1.4-1.39-2.2-3.32-2.2-5.3s.8-3.91 2.2-5.3c.34-.35.73-.66 1.14-.93.4-.27.84-.51 1.29-.69.45-.19.93-.34 1.4-.43.97-.2 1.97-.2 2.94 0 .47.09.95.24 1.4.43.45.18.89.42 1.29.69.41.27.8.58 1.14.93 1.4 1.39 2.2 3.33 2.2 5.3 0 1.98-.8 3.91-2.2 5.3a7.403 7.403 0 0 1-3.83 2.05c-.489.1-.978.15-1.47.15zm-257.709 78.44c-.49 0-.98-.05-1.46-.15-.48-.09-.95-.24-1.41-.42-.45-.19-.88-.42-1.29-.69-.41-.28-.79-.59-1.14-.94a6.43 6.43 0 0 1-.93-1.14 7.597 7.597 0 0 1-1.12-2.69c-.1-.49-.15-.98-.15-1.47s.05-.98.15-1.46c.1-.48.24-.96.43-1.41s.42-.89.69-1.29c.27-.41.58-.8.93-1.14.35-.35.73-.66 1.14-.93.41-.28.84-.51 1.29-.69.46-.19.93-.34 1.41-.43.97-.2 1.96-.2 2.93 0 .48.09.95.24 1.4.43.46.18.89.41 1.3.69a7.24 7.24 0 0 1 2.07 2.07c.27.4.5.84.69 1.29s.33.93.43 1.41c.09.48.14.97.14 1.46s-.05.98-.14 1.47a7.597 7.597 0 0 1-1.12 2.69c-.27.42-.59.8-.93 1.14-.35.35-.73.66-1.14.94a7.528 7.528 0 0 1-2.7 1.11c-.479.1-.979.15-1.47.15zm64.431 0c-.48 0-.98-.05-1.46-.14a7.69 7.69 0 0 1-2.7-1.12c-.41-.28-.79-.59-1.14-.94a7.597 7.597 0 0 1-2.05-3.83c-.1-.49-.15-.98-.15-1.47s.05-.98.15-1.46.24-.95.43-1.41a7.597 7.597 0 0 1 1.62-2.43c.35-.35.73-.66 1.14-.93.41-.27.84-.51 1.3-.69.45-.19.92-.34 1.4-.43 2.44-.49 5.03.31 6.77 2.05a7.597 7.597 0 0 1 1.62 2.43c.19.46.33.93.43 1.41s.15.97.15 1.46-.05.98-.15 1.47a7.597 7.597 0 0 1-2.05 3.83 7.55 7.55 0 0 1-5.31 2.2zm64.429 0c-.49 0-.99-.05-1.47-.15-.48-.09-.95-.24-1.4-.42-.45-.19-.89-.42-1.3-.69-.41-.28-.79-.59-1.14-.94a7.543 7.543 0 0 1-2.05-6.76c.1-.48.24-.95.43-1.41a7.597 7.597 0 0 1 1.62-2.43c.35-.35.73-.66 1.14-.93s.85-.51 1.3-.69c.45-.19.92-.33 1.4-.43.97-.2 1.97-.2 2.93 0 .48.1.95.24 1.41.43.45.18.88.42 1.29.69.41.27.79.58 1.14.93.35.34.66.73.93 1.14.27.4.5.84.69 1.29.19.46.33.93.43 1.41.1.48.15.97.15 1.46s-.05.98-.15 1.47a7.556 7.556 0 0 1-1.12 2.69c-.27.41-.58.8-.93 1.14-.35.35-.73.66-1.14.94-.41.27-.84.5-1.29.69-.46.18-.93.33-1.41.42-.479.1-.969.15-1.46.15zm64.42 0a7.51 7.51 0 0 1-7.5-7.5c0-1.97.8-3.91 2.2-5.3.34-.35.73-.66 1.14-.93.4-.27.84-.51 1.29-.69.45-.19.93-.34 1.4-.43 2.44-.49 5.03.31 6.77 2.05.35.34.66.73.93 1.14.27.4.51.84.69 1.29.19.46.34.93.43 1.41.1.48.15.97.15 1.46a7.51 7.51 0 0 1-7.5 7.5zm64.429 0c-.49 0-.98-.05-1.47-.14-.47-.1-.95-.25-1.4-.43a7.403 7.403 0 0 1-2.43-1.63c-.35-.34-.66-.72-.94-1.14-.27-.4-.5-.84-.69-1.29-.18-.45-.33-.92-.42-1.4-.1-.49-.15-.98-.15-1.47s.05-.98.15-1.46c.09-.48.24-.96.42-1.41a7.403 7.403 0 0 1 1.63-2.43c.34-.35.73-.66 1.14-.93.4-.27.84-.51 1.29-.69.45-.19.93-.34 1.4-.43.97-.2 1.97-.2 2.94 0 .47.09.95.24 1.4.43.45.18.89.42 1.29.69.41.27.8.58 1.14.93.35.34.66.73.94 1.14.27.4.5.84.68 1.29.19.46.34.93.43 1.41.1.48.15.97.15 1.46s-.05.98-.15 1.47c-.09.48-.24.95-.43 1.4-.18.45-.41.89-.68 1.29-.28.42-.59.8-.94 1.14a7.403 7.403 0 0 1-2.43 1.63c-.45.18-.93.33-1.4.43-.489.09-.978.14-1.47.14z" fill="#96e0de"/></svg>