<svg xmlns="http://www.w3.org/2000/svg" viewBox="0 0 484.909 484.909"><path d="M105.596 199.98c-.009-.525-.02-1.049-.02-1.575 0-50.155 40.659-90.814 90.814-90.814 43.222 0 79.388 30.196 88.562 70.643a58.995 58.995 0 0 1 28.91-7.531c32.766 0 59.328 26.562 59.328 59.328 0 1.339-.06 2.664-.148 3.981 24.325 9.03 41.661 32.444 41.661 59.911 0 35.286-28.605 63.892-63.892 63.892H122.947c-44.108 0-79.865-35.757-79.865-79.865 0-38.15 26.749-70.046 62.514-77.97z" fill="#1ea6c6"/><path d="M275.223 0h15v58.599h-15zm83.871 93.338l-10.606-10.606 41.434-41.435 10.607 10.607zm24.133 58.265h58.6v15h-58.6zM206.352 93.339l-41.434-41.435 10.606-10.606 41.435 41.434zm153.866 65.647c0 4.95-.46 9.78-1.35 14.47-12.35-9.85-28-15.75-45-15.75-7.04 0-14.03 1.03-20.73 3.03-6.54-16.73-17.42-31.7-31.53-43.1a103.76 103.76 0 0 0-30.02-16.88c13.64-11.99 31.53-19.26 51.13-19.26 42.8 0 77.5 34.69 77.5 77.49z" fill="#f7cf52"/><path d="M92.54 372.098h15v32.446h-15zm0 48.063h15v64.748h-15zm32.211-48.063h15v112.811h-15zm32.22 0h15v56.507h-15zm0 71.304h15v41.507h-15zm32.211-71.304h15v112.811h-15zm64.422 78.001h15v34.81h-15zm0-78.001h15v62.583h-15zm-32.211 0h15v18.183h-15zm0 32.453h15v80.358h-15zm64.422-32.453h15v49.323h-15zm0 64.201h15v48.61h-15zm32.22-64.201h15v79.165h-15zm0 93.445h15v19.366h-15zm32.211-93.445h15v112.811h-15z" fill="#96e0de"/></svg>