<svg xmlns="http://www.w3.org/2000/svg" viewBox="0 0 387.991 387.991"><path d="M70.699 92.389c-.009-.525-.02-1.049-.02-1.575C70.679 40.659 111.338 0 161.493 0c43.222 0 79.388 30.196 88.562 70.643a58.995 58.995 0 0 1 28.91-7.531c32.766 0 59.328 26.562 59.328 59.328 0 1.339-.06 2.664-.148 3.981 24.325 9.03 41.661 32.444 41.661 59.911 0 35.286-28.605 63.892-63.892 63.892H88.051c-44.108 0-79.865-35.757-79.865-79.865 0-38.149 26.749-70.045 62.513-77.97z" fill="#1ea6c6"/><path d="M57.644 267.88h15v39.746h-15zm0 55.363h15v64.748h-15zm32.211-55.363h15v120.111h-15zm32.219 0h15v63.807h-15zm0 78.604h15v41.507h-15zm32.211-78.604h15v120.111h-15zm64.423 85.301h15v34.81h-15zm0-85.301h15v69.883h-15zm-32.211 0h15v25.483h-15zm0 39.753h15v80.358h-15zm64.422-39.753h15v56.623h-15zm0 71.501h15v48.61h-15zm32.219-71.501h15v86.465h-15zm0 100.745h15v19.366h-15zm32.211-100.745h15v120.111h-15z" fill="#96e0de"/></svg>