<svg xmlns="http://www.w3.org/2000/svg" viewBox="0 0 391.9 391.9"><path d="M391.9 188.449h-55.923l31.582-54.697-12.99-7.5-35.912 62.197h-86.755c-1.614-7.839-5.706-14.784-11.418-19.977l43.318-75.034h71.815v-15h-63.156l27.965-48.439-12.99-7.5-27.965 48.439-31.581-54.704-12.99 7.5 35.911 62.205-43.236 74.892a36.953 36.953 0 0 0-12.048-2.017c-3.95 0-7.755.626-11.329 1.773l-43.1-74.653 35.907-62.194-12.99-7.5-31.577 54.693-27.963-48.434-12.99 7.5 27.963 48.435-63.167-.002-.001 15 71.828.003 43.035 74.541c-6.008 5.243-10.325 12.378-11.992 20.474H73.249L37.34 126.253l-12.99 7.5 31.58 54.697H0v15h55.925l-31.583 54.699 12.99 7.5 35.913-62.199h85.906c1.667 8.096 5.983 15.231 11.991 20.475l-43.034 74.538H56.285v15h63.165L91.486 361.9l12.99 7.5 27.96-48.43 31.577 54.696 12.99-7.5-35.907-62.197 43.102-74.657a36.98 36.98 0 0 0 11.33 1.774 36.96 36.96 0 0 0 12.049-2.017l43.233 74.887-35.913 62.204 12.99 7.5 31.583-54.703 27.966 48.442 12.99-7.5-27.961-48.433 63.155.002.001-15-71.816-.003-43.32-75.038c5.712-5.193 9.804-12.139 11.418-19.978h86.749l35.911 62.199 12.99-7.5-31.581-54.699H391.9v-15zm-218.51 7.501c0-12.206 9.931-22.136 22.137-22.136s22.136 9.93 22.136 22.136-9.93 22.137-22.136 22.137-22.137-9.931-22.137-22.137z" fill="#008db3"/></svg>