<svg xmlns="http://www.w3.org/2000/svg" viewBox="0 0 450.748 450.748"><path d="M281.5 215.374H0v-15h281.5c28.948 0 52.5-23.552 52.5-52.5s-23.552-52.5-52.5-52.5H274v-15h7.5c37.22 0 67.5 30.28 67.5 67.5s-30.28 67.5-67.5 67.5z" fill="#ccc"/><path d="M281.5 180.374h-65v-15h65c9.649 0 17.5-7.851 17.5-17.5s-7.851-17.5-17.5-17.5H257v-15h24.5c17.921 0 32.5 14.579 32.5 32.5s-14.579 32.5-32.5 32.5z" fill="#999"/><path fill="gray" d="M52 165.374h147.6v15H52z"/><path d="M450.748 345.374h-15v-7.5c0-28.948-23.552-52.5-52.5-52.5H100v-15h283.248c37.22 0 67.5 30.28 67.5 67.5v7.5z" fill="#999"/><path d="M383.248 370.374h-7.5v-15h7.5c9.649 0 17.5-7.85 17.5-17.5s-7.851-17.5-17.5-17.5H103.899v-15h279.349c17.921 0 32.5 14.579 32.5 32.5s-14.579 32.5-32.5 32.5z" fill="gray"/><path fill="#ccc" d="M52 305.374h32.7v15H52z"/><path fill="gray" d="M295.3 235.374H384v15h-88.7z"/><path fill="#999" d="M26 235.374h251v15H26z"/></svg>